<?xml version="1.0" standalone="no"?>
<!DOCTYPE svg PUBLIC "-//W3C//DTD SVG 1.1//EN" "http://www.w3.org/Graphics/SVG/1.1/DTD/svg11.dtd" >
<svg xmlns="http://www.w3.org/2000/svg" xmlns:xlink="http://www.w3.org/1999/xlink" version="1.1">
<metadata></metadata>
<defs>
<font id="shopping_script_demoregular" horiz-adv-x="516" >
<font-face units-per-em="2048" ascent="1536" descent="-512" />
<missing-glyph horiz-adv-x="500" />
<glyph horiz-adv-x="0" />
<glyph unicode="&#xd;" />
<glyph unicode=" " />
<glyph unicode="!" horiz-adv-x="565" d="M208 6q-1 12 11 17l25 4q10 2 17 3t11 1q16 0 16.5 -12.5t-16.5 -16.5q-2 0 -8 -1t-16 -3l-25 -4q-14 0 -15 12zM268 139l88 756q4 16 17.5 13t11.5 -17l-88 -756q-4 -14 -17.5 -10t-11.5 14z" />
<glyph unicode="&#x26;" horiz-adv-x="741" d="M80 47q0 35 44 88t103 113q-10 41 -16 82t-6 88q0 59 26.5 117.5t68.5 103.5t90 72.5t91 27.5q51 0 81 -31.5t30 -76.5q0 -31 -22.5 -69t-59.5 -80t-84 -86t-94 -89q-18 -16 -37 -32.5t-35 -32.5q27 -78 74 -148q16 8 29.5 14.5t29.5 14.5q78 35 147.5 64.5t108.5 29.5 q27 0 44.5 -11t22.5 -29.5t-1 -39t-25 -39.5q-10 -8 -19 2.5t-1 18.5q23 23 16.5 46t-37.5 23q-35 0 -102.5 -27.5t-140.5 -62.5q-14 -8 -27.5 -14t-28.5 -12q78 -96 183.5 -154t211.5 -72q16 -2 12.5 -16t-16.5 -12q-115 14 -227.5 75.5t-189.5 165.5q-55 -25 -103.5 -41 t-81.5 -18q-59 0 -59 47zM109 47q-1 -22 28 -18q29 2 74 16t94 37q-20 31 -37.5 65.5t-29.5 71.5q-55 -53 -92 -98t-37 -74zM233 418q0 -78 19 -146q14 14 28.5 27.5t30.5 28.5q45 43 90 85t81 82t58.5 74.5t22.5 61.5q0 33 -21.5 56.5t-60.5 23.5t-82 -26t-79.5 -66.5 t-61.5 -93t-25 -107.5z" />
<glyph unicode="'" d="M236 936l53 201q4 10 17 8t11 -17l-53 -200q-6 -14 -19.5 -9t-8.5 17z" />
<glyph unicode="," horiz-adv-x="534" d="M184 -258q78 145 113 248.5t12 148.5q-6 12 7.5 19.5t17.5 -6.5q25 -51 -9 -161t-116 -261q-8 -10 -20.5 -5t-4.5 17z" />
<glyph unicode="." horiz-adv-x="409" d="M173 6q-1 12 11 17l25 4q10 2 17 3t12 1q16 0 16 -12.5t-16 -16.5q-2 0 -8.5 -1t-16.5 -3l-25 -4q-14 0 -15 12z" />
<glyph unicode="0" horiz-adv-x="489" d="M72 186q0 61 23.5 134t62.5 139.5t89 115t103 60.5q14 4 18.5 -10.5t-10.5 -18.5q-49 -12 -95 -57t-83 -106.5t-58.5 -130t-21.5 -126.5q0 -51 21.5 -83.5t68.5 -32.5q51 0 88 24.5t62 64.5t37 90t12 101q0 59 -15.5 110.5t-45.5 82.5q-8 8 1 19t19 1q35 -35 52.5 -91 t17.5 -122q0 -55 -13.5 -110.5t-42 -99.5t-71.5 -71.5t-101 -27.5q-63 0 -90.5 41t-27.5 104z" />
<glyph unicode="1" horiz-adv-x="659" d="M-86 -125q57 86 148.5 178t190.5 175t196.5 150.5t168.5 102.5q10 6 16.5 -4t0.5 -14q-72 -94 -91.5 -174t-19.5 -115q0 -16 -14 -16t-14 16q0 33 13 102.5t62 149.5q-72 -41 -159.5 -104.5t-174.5 -140.5t-166 -159.5t-132 -162.5q-10 -10 -20.5 -2t-4.5 18z" />
<glyph unicode="2" horiz-adv-x="698" d="M58.5 35q-3.5 10 2.5 16q45 39 101.5 92.5t105.5 108.5t82 106.5t31 87.5q-2 23 -19.5 40.5t-39.5 17.5q-35 0 -78.5 -15t-96.5 -83q-10 -10 -20 -2t-4 18q31 39 58.5 60.5t52 32.5t47 14t41.5 3q35 0 60.5 -25.5t27.5 -60.5q2 -37 -25 -84t-68 -97t-91 -99t-95 -90 q63 18 136 44.5t145.5 55.5t139 57.5t116.5 53.5q10 4 18 -6.5t-6 -18.5q-59 -29 -138 -63.5t-162 -66.5t-163 -59.5t-143 -43.5q-12 -4 -15.5 6z" />
<glyph unicode="3" horiz-adv-x="686" d="M44 -104.5q-3 14.5 7 18.5q49 18 113.5 52t132.5 75t132.5 87t115.5 89t81.5 80t30.5 63q0 45 -60 60.5t-142 15.5q-57 0 -125 -7t-133 -19q-16 -4 -19.5 6t4.5 18q59 61 13 66q-23 2 -62.5 -19.5t-62.5 -62.5q-10 -10 -19.5 -4t-5.5 16q12 25 32.5 43.5t42 30.5t42 18 t33.5 6q41 0 53 -24.5t-17 -57.5q47 8 107.5 13.5t116.5 5.5q47 0 89 -5t73.5 -17.5t50 -32t18.5 -50.5q0 -29 -31.5 -68.5t-84 -85.5t-119 -95.5t-136 -92.5t-135 -77.5t-117.5 -55.5q-16 -4 -19 10.5z" />
<glyph unicode="4" horiz-adv-x="638" d="M33 48q-6 11 2 20l8 4q41 27 102.5 86t131 133t138.5 152.5t126 146.5q10 10 21 1t-1 -22q-41 -49 -89 -104t-98 -110.5t-99.5 -107.5t-94.5 -95q117 61 211 97t160 36q55 0 55 -45q0 -18 -12 -43t-31.5 -51.5t-44 -54.5t-49.5 -50q-10 -8 -19.5 2t-0.5 18q23 20 46 46 t41.5 49.5t30 45t11.5 38.5q0 16 -27 16q-82 0 -211 -58.5t-289 -154.5q-12 -6 -18 5z" />
<glyph unicode="5" horiz-adv-x="665" d="M44 115.5q-1 13.5 11 15.5q74 6 167 23.5t176 43t140.5 56.5t57.5 61q0 29 -40 35t-91 6h-59q-59 -2 -92 1t-50 20q-8 8 -6 17t12 14q18 8 56.5 23t86.5 32.5t99 36t94 30.5q16 4 19.5 -10t-11.5 -18q-59 -18 -116.5 -39t-104.5 -37q-53 -20 -102 -39q10 -4 42 -4t73 2 h59q63 0 111.5 -12.5t48.5 -57.5q0 -37 -59.5 -72.5t-147.5 -65.5t-186.5 -49t-176.5 -26q-10 0 -11 13.5z" />
<glyph unicode="6" d="M35 150q0 39 28.5 86t75.5 95t106.5 92t121 79t120 55.5t101.5 20.5q14 0 13 -14.5t-13 -14.5q-41 0 -96.5 -19.5t-114 -52.5t-114.5 -74t-100 -86t-72 -88t-28 -79q0 -88 105 -89q35 0 71.5 16.5t66.5 43t49.5 60.5t19.5 67q0 47 -22.5 66.5t-53.5 19.5q-57 0 -100 -43 q-10 -10 -20.5 0t-0.5 20q25 23 56.5 37t64.5 14q43 0 73.5 -26.5t30.5 -87.5q0 -37 -22.5 -76t-56 -69.5t-75.5 -50t-81 -19.5q-63 0 -98 31.5t-35 85.5z" />
<glyph unicode="7" horiz-adv-x="735" d="M31 275.5q-6 13.5 4 17.5q57 35 126.5 70.5t138.5 64.5t130.5 47.5t104.5 18.5q25 0 51 -4.5t46.5 -15.5t34 -31.5t13.5 -53.5q0 -23 -10 -59l20 4q12 4 14.5 -10.5t-10.5 -18.5l-37 -6q-16 -35 -42.5 -80t-67.5 -100q-10 -10 -21.5 -2t-3.5 18q37 47 61.5 87t41.5 73 l-119 -16q-10 -2 -13.5 11t9.5 17l135 19q14 35 14 63q0 47 -38 61.5t-78 14.5q-41 0 -99.5 -18.5t-125 -46t-134 -63.5t-125.5 -69q-14 -6 -20 7.5z" />
<glyph unicode="8" horiz-adv-x="497" d="M29 184q0 25 17 47.5t45 44t63.5 42t72.5 40.5q-14 25 -14 43q0 25 14.5 48.5t37 42t47 29.5t46.5 11q23 0 39.5 -13t16.5 -42q0 -35 -42 -65.5t-98 -61.5q14 -12 32 -25.5l34 -25.5q43 -33 82 -67.5t39 -75.5q0 -49 -67 -78t-167 -29q-37 0 -71.5 10.5t-63.5 28.5 t-46 43t-17 53zM57 184q0 -47 53.5 -76.5t116.5 -29.5q88 0 146.5 20.5t58.5 57.5q0 29 -33.5 59.5t-74.5 58.5q-23 16 -42.5 30.5t-35.5 31.5q-2 -2 -4 -2q-35 -18 -68 -36.5t-58.5 -38t-42 -38t-16.5 -37.5zM242 401q0 -16 12 -30q53 29 92 56.5t39 49.5q0 27 -27 27 q-16 0 -36.5 -9.5t-38 -23.5t-29.5 -33t-12 -37z" />
<glyph unicode="9" horiz-adv-x="536" d="M30 -19.5q-5 13.5 7 17.5q160 74 268.5 187.5t179.5 240.5q-63 -33 -131.5 -55.5t-111.5 -22.5q-53 0 -54 43q0 27 32 57.5t81 55t108.5 36t114.5 -0.5q12 -4 7 -18.5t-15 -10.5q-45 10 -97 1t-97.5 -28.5t-75 -45t-29.5 -46.5q0 -14 25 -14q20 0 52 8t68.5 21.5t75.5 32 t74 38.5q10 6 16.5 -3t-0.5 -23q-35 -70 -84 -139.5t-110.5 -133t-133 -116t-151.5 -89.5q-14 -6 -19 7.5z" />
<glyph unicode="?" horiz-adv-x="456" d="M37 227q14 31 43 70t63.5 75t69.5 60.5t59 24.5q25 0 35 -16.5t10 -41.5q0 -29 -14 -56.5t-31 -53.5q-14 -23 -24 -43.5t-10 -36.5q0 -25 53 -37q12 -4 8 -18.5t-16 -10.5q-74 18 -74 66q0 18 11 41.5t28 50.5q14 25 27.5 50.5t13.5 47.5q0 29 -17 29q-23 0 -53.5 -22.5 t-61 -55.5t-57.5 -69.5t-39 -65.5q-6 -12 -18 -6t-6 18zM308.5 77.5q0.5 14.5 13.5 14.5h28q14 0 13 -14.5t-13 -14.5h-28q-14 0 -13.5 14.5z" />
<glyph unicode="A" horiz-adv-x="1400" d="M-123.5 230.5q-3.5 13.5 8.5 17.5q78 18 163 35.5t173 31.5q74 113 170 227.5t201.5 222t210 201t191.5 164t150.5 110.5t86.5 40q31 0 38 -15.5t-2.5 -45t-32 -70.5t-50.5 -92q-35 -61 -76 -138t-77 -163t-61.5 -178.5t-27.5 -186.5q41 2 80 3t76 1q63 0 118.5 -3 t102.5 -7q14 -2 13 -16.5t-17 -12.5q-47 4 -102.5 7.5t-114.5 3.5q-37 0 -76 -1t-80 -4q0 -92 23.5 -153.5t60.5 -96t85 -49t97 -14.5q78 0 146.5 24.5t101.5 47.5q16 10 24.5 -1t-7.5 -24q-35 -25 -108 -50.5t-157 -25.5q-55 0 -107 15.5t-94 54.5t-68 104.5t-26 165.5 q-160 -8 -333.5 -26.5t-346.5 -46.5q-61 -98 -97 -187.5t-36 -165.5q-2 -12 -15 -11t-13 11q0 76 33.5 164t93.5 185q-80 -14 -157 -30.5t-148 -33.5q-14 -2 -17.5 11.5zM254 322q166 27 335 44t324 23q2 94 28 189.5t62.5 183.5t78.5 166t77 141q47 84 72 133t0 49 q-23 0 -83.5 -38.5t-145 -105.5t-185 -157t-202 -193.5t-195.5 -215t-166 -219.5z" />
<glyph unicode="B" horiz-adv-x="1705" d="M-682 244q0 68 64.5 146.5t174 161.5t253 167t301 160.5t319.5 144.5t307.5 117t265 77.5t191.5 28.5q49 0 76.5 -14t27.5 -47q0 -37 -28.5 -76t-74.5 -79t-103.5 -80t-112.5 -77q-43 -29 -81 -55t-67.5 -48.5t-47 -42t-17.5 -32.5q0 -16 32.5 -24t89 -12.5t130.5 -5.5 t153 -1q115 0 233 -3t214 -16t156.5 -44t60.5 -86q0 -43 -57.5 -97.5t-154.5 -114t-223 -119.5t-262.5 -117.5t-274.5 -107.5t-260 -87t-216 -58.5t-143 -21.5q-35 0 -54.5 21.5t-19.5 60.5q0 45 16.5 114.5t44 151.5t65.5 171t82 173t91 157t96 124q10 8 18.5 -1.5 t2.5 -19.5q-47 -49 -94.5 -120.5t-90.5 -152.5t-79.5 -167t-64.5 -167t-43 -149.5t-15 -113.5q0 -53 45 -53q49 0 141 21.5t211 58t255 86t270 105.5t258 114.5t219.5 115t151.5 105.5t56 88q0 45 -58 69.5t-149.5 36t-204 13.5t-223.5 2q-86 0 -164.5 1t-139 8t-95.5 21.5 t-35 40.5q0 18 18.5 41t50.5 49.5t73 55t84 57.5q53 35 108 74t99 75.5t72 72.5t28 65q0 33 -76 33q-72 0 -189.5 -28t-261 -77t-302 -115.5t-314.5 -141.5t-297 -157t-248.5 -162.5t-171 -155.5t-63.5 -138q0 -27 18 -49q10 -12 0 -20.5t-18 -0.5q-29 29 -29 70z" />
<glyph unicode="C" horiz-adv-x="1536" d="M61 -8q0 88 68 190.5t182.5 201.5t265 191.5t316.5 163t337 112.5t324 42q182 0 300 -37t190 -90q10 -10 2 -21.5t-23 -1.5q-68 53 -180 87t-289 34q-152 0 -318.5 -41t-329.5 -109.5t-310 -158.5t-260 -187.5t-179.5 -194.5t-66.5 -181t82 -140.5t217 -56.5 q121 0 276.5 23.5t319.5 66.5t321.5 103.5t282.5 132.5q18 8 22.5 -5.5t-5.5 -19.5q-127 -74 -286 -134t-325 -103t-324.5 -67.5t-281.5 -24.5q-74 0 -134 17t-103 48t-67 72t-24 88z" />
<glyph unicode="D" horiz-adv-x="1705" d="M-459 399q0 86 62.5 173t174 166t262 146.5t328 117t373 78t394.5 28.5q147 0 267 -25.5t205 -72.5t131 -114t46 -148q0 -117 -79 -236t-208 -227.5t-296 -201.5t-344 -161.5t-351 -108.5t-318 -40q-59 0 -75.5 23.5t-16.5 58.5q0 33 28 93t74 135t103 160t118.5 165.5 t121 153.5t106.5 124q10 12 20.5 1t0.5 -21q-45 -49 -103.5 -121t-119 -152t-118 -161.5t-102.5 -155.5t-72.5 -132.5t-27.5 -88.5q0 -23 11 -38.5t52 -15.5q139 0 310.5 38t345.5 105.5t338 158t292 195.5t204.5 220t76.5 230q0 76 -44 137t-125 104t-195.5 66.5 t-255.5 23.5q-195 0 -387.5 -26.5t-366.5 -74.5t-322.5 -112.5t-257 -140.5t-170 -159t-61.5 -167q0 -25 9 -51t44 -45q14 -4 8 -17.5t-20 -6.5q-43 23 -56.5 56.5t-13.5 63.5z" />
<glyph unicode="E" horiz-adv-x="1298" d="M53 561q0 104 44 190.5t119 155t172 119.5t204.5 85t216.5 51.5t207 17.5h33.5t33.5 -2t13.5 -15.5t-17.5 -13.5q-16 2 -31.5 2h-31.5q-94 0 -199.5 -16.5t-210 -49t-199 -82t-167 -115t-115.5 -147.5t-43 -180q0 -57 25.5 -96t67.5 -63.5t98.5 -35t117.5 -10.5 q94 2 189.5 26t167.5 62q14 8 19 -2t-5 -20q-121 -90 -177.5 -183.5t-56.5 -191.5q0 -53 44 -90t108 -37q100 0 199.5 18.5t188.5 47t162 64.5t122 73q12 10 20 -3.5t-4 -21.5q-49 -37 -124 -73.5t-165 -66.5t-192.5 -48.5t-206.5 -18.5q-76 0 -128 45.5t-52 110.5 q0 82 44 168t118 162q-61 -23 -133 -35t-138 -14q-68 0 -129 12t-107 40t-74 72t-28 109z" />
<glyph unicode="F" horiz-adv-x="1386" d="M41 311q0 133 154.5 263.5t433 233.5t664.5 167.5t849 64.5q16 0 15.5 -14t-15.5 -14q-457 0 -837.5 -61.5t-655 -161t-427 -224.5t-152.5 -254q0 -72 44.5 -124t110.5 -54q14 0 13.5 -13.5t-13.5 -15.5q-78 4 -131 63.5t-53 143.5zM567.5 187.5q-4.5 11.5 5.5 17.5 q41 23 108 45t153 45q14 111 38.5 220.5t57.5 193.5q8 14 20.5 8t7.5 -21q-31 -80 -55 -185t-39 -208q86 20 180.5 37.5t189.5 31t186 21t169 10.5q14 -2 12 -15t-12 -13q-78 -2 -170 -10.5t-188 -21.5t-191.5 -30.5t-179.5 -38.5q-4 -45 -7 -84.5t-3 -74.5q0 -33 2 -58.5 t8 -46.5q4 -14 -10 -17t-19 9q-6 20 -8 49t-2 64t2 72.5t6 78.5q-78 -23 -141 -43t-102 -43q-14 -4 -18.5 7.5z" />
<glyph unicode="G" horiz-adv-x="1619" d="M61 258q0 98 39 200.5t110 199t171 180.5t223 146.5t264.5 99t296.5 36.5q80 0 148.5 -18.5t121 -49t82 -72.5t29.5 -89q0 -41 -18.5 -82t-50 -75t-73.5 -58.5t-91 -34.5q-12 -2 -13.5 12.5t9.5 16.5q43 8 82 30.5t66.5 52t44 65.5t16.5 73q0 41 -28 78t-76 64.5 t-111.5 43t-137.5 15.5q-150 0 -288 -35t-257.5 -96.5t-217 -142.5t-167 -174t-107.5 -191.5t-38 -194.5q0 -98 51.5 -151.5t137.5 -53.5q104 0 192 16.5t172 34.5q78 16 153.5 32t164.5 16q109 0 174 -42t94 -120q59 16 115.5 33.5t113.5 33.5q55 16 112.5 32.5t108.5 33.5 q14 0 17.5 -11.5t-8.5 -17.5q-53 -16 -108.5 -32.5t-113.5 -32.5q-57 -16 -113.5 -32.5t-115.5 -35.5q14 -49 14 -119q0 -86 -38.5 -164.5t-103.5 -147.5t-148.5 -125t-176 -96t-184.5 -61.5t-172 -21.5q-72 0 -122 47t-50 115q0 94 82 178t215 157.5t302 137t345 119.5 q-53 143 -239 143q-82 0 -157 -15.5t-153 -31.5q-84 -18 -173 -34.5t-199 -16.5q-98 0 -158 61t-60 172zM285 -612q0 -55 42 -94t101 -39q78 0 167 20t177 59t169 92.5t143.5 119t100.5 140t38 156.5q0 66 -15 111q-176 -53 -342 -113.5t-295 -130t-207.5 -149.5t-78.5 -172 z" />
<glyph unicode="H" horiz-adv-x="1705" d="M-207 -266q0 84 75 200.5t214 233.5t335.5 214t442.5 144q47 135 80.5 261.5t56.5 228.5q2 12 16.5 11t12.5 -15q-23 -100 -54.5 -223t-78.5 -257q76 12 153.5 19.5t161.5 7.5q41 0 85 -2t87 -6q63 174 130 328.5t116 248.5q6 12 19.5 6t5.5 -18q-25 -47 -53.5 -108.5 t-60.5 -135t-64.5 -155.5t-63.5 -168q150 -14 309 -55q14 -4 9 -18.5t-17 -10.5q-164 41 -311 55q-59 -164 -105.5 -322.5t-62.5 -275.5q-2 -14 -17.5 -12t-11.5 16q16 117 62.5 274.5t105.5 321.5q-41 4 -81 6t-81 2q-86 0 -166.5 -7t-158.5 -21q-61 -172 -145.5 -341 t-195 -304.5t-248.5 -219t-308 -83.5q-80 0 -136.5 52t-56.5 128zM-178 -266q0 -63 48 -107.5t116 -44.5q162 0 295 80t239.5 210t188.5 294t141 330q-238 -47 -428.5 -141.5t-323.5 -205t-204.5 -223t-71.5 -192.5z" />
<glyph unicode="I" horiz-adv-x="1550" d="M106 418q0 74 56.5 159t152 167.5t224.5 160.5t274 136.5t300 94t302 35.5q98 0 164 -57t66 -156q0 -86 -43 -198.5t-115 -230t-164 -231.5t-189.5 -203t-193.5 -144t-174 -55q-100 0 -141 43t-41 108q0 43 14 90t39 92t55.5 85t63.5 69q10 8 20 -1t0 -20 q-31 -27 -60.5 -64.5t-52 -80.5t-37 -87t-14.5 -83q0 -53 34 -88t120 -35q76 0 168 53.5t186 140.5t184.5 197.5t159 225t110.5 224t42 193.5q0 86 -57.5 135.5t-143.5 49.5q-145 0 -295.5 -34t-293 -91t-268.5 -132t-220 -155t-148.5 -162t-54.5 -151q0 -43 16.5 -76 t44 -54.5t62.5 -34.5t72 -17q14 -2 13 -16.5t-17 -12.5q-41 6 -80 20.5t-70 39t-50.5 62.5t-19.5 89z" />
<glyph unicode="J" horiz-adv-x="2048" d="M14 -674q0 98 89.5 194.5t272.5 186.5t460.5 172t652.5 150q80 180 123 378.5t43 413.5q0 143 -92.5 229.5t-266.5 86.5q-281 0 -499.5 -57.5t-370.5 -148.5t-231.5 -202t-79.5 -215q0 -53 29.5 -87t80.5 -50q12 -4 7 -18.5t-15 -10.5q-59 20 -95 60.5t-36 105.5 q0 111 82 225.5t236.5 209.5t380 155.5t511.5 60.5q188 0 287.5 -94t99.5 -250q0 -213 -40.5 -410.5t-118.5 -375.5q266 45 583 86q14 2 14.5 -12.5t-10.5 -16.5q-166 -20 -315 -42.5t-287 -45.5q-90 -197 -218 -360.5t-286.5 -281.5t-343 -183.5t-382.5 -65.5 q-123 0 -194 55.5t-71 157.5zM43 -674q0 -90 62.5 -137t173.5 -47q193 0 370.5 62.5t331.5 176t279.5 270t214.5 347.5q-729 -131 -1080.5 -308t-351.5 -364z" />
<glyph unicode="K" horiz-adv-x="1423" d="M115 10q39 113 86 237t93 238.5t87 209t68 149.5q6 10 17 4t7 -17q-27 -55 -64.5 -145t-80.5 -198.5t-89 -229.5t-87 -235q66 43 152.5 109.5t191.5 148.5l221 170t238.5 176t243.5 164.5t236.5 138t219 94.5t190.5 35q76 0 142.5 -13.5t123 -47t99.5 -94t71 -154.5 q4 -12 -10 -16.5t-18 7.5q-37 88 -80 144.5t-93 88.5t-108.5 44t-126.5 12q-78 0 -175 -32.5t-205.5 -87t-224.5 -128t-231.5 -154.5t-228 -166t-215.5 -165q18 -43 49 -97.5t81 -102.5t124 -81.5t178 -33.5q92 0 211 31.5t273 107.5q12 6 18 -6.5t-6 -18.5 q-158 -78 -278.5 -110.5t-217.5 -32.5q-115 0 -192.5 37t-128.5 89t-82 107.5t-51 94.5l-31 -25q-90 -72 -190.5 -143.5t-171.5 -122.5q-12 -10 -26.5 -4t-8.5 24z" />
<glyph unicode="L" horiz-adv-x="1566" d="M34.5 -200.5q-1.5 14.5 4.5 20.5q111 111 220.5 257t209.5 322t186.5 376t149.5 419q4 14 18.5 11t10.5 -19q-68 -238 -161 -449t-194.5 -385t-204 -309t-190.5 -223q352 43 610 81t440.5 74.5t300 72.5t189.5 73q14 8 19.5 -5.5t-7.5 -19.5q-78 -45 -235.5 -87 t-368.5 -82t-460.5 -74.5t-510.5 -63.5q-25 -4 -26.5 10.5z" />
<glyph unicode="M" horiz-adv-x="1794" d="M-530 -39q0 61 21.5 147.5t53 181.5t69.5 191.5t71 177.5q51 128 69 187q4 12 18.5 9t10.5 -17q-10 -29 -29.5 -79t-44.5 -112q-33 -80 -69.5 -175t-68.5 -188.5t-52.5 -178.5t-20.5 -144q0 -43 13.5 -67.5t44.5 -24.5q39 0 99 59.5t133 156.5t156 222t169 258 q90 137 179 271.5t169 241t149.5 171t118.5 64.5q53 0 75.5 -58.5t22.5 -156.5q0 -127 -25.5 -297t-53.5 -342q-27 -145 -46.5 -275.5t-19.5 -208.5q0 -84 23 -84q10 0 29.5 20.5t46 56.5t57 82t63.5 97q45 70 94 142.5t97.5 132t91.5 96.5t80 37q51 0 67.5 -57.5 t16.5 -141.5q0 -63 -4.5 -126.5t-4.5 -137.5q0 -72 10.5 -120t45.5 -48q39 0 91 17.5t111.5 45t123 62.5t128.5 72q10 4 16.5 -6.5t-3.5 -18.5q-66 -37 -132.5 -72.5t-127 -64.5t-113.5 -46t-94 -17q-27 0 -43.5 15t-25.5 42t-12 62.5t-3 76.5q0 63 4 127t4 137 q0 72 -10.5 121t-44.5 49q-31 0 -71 -35.5t-84 -93t-91 -128t-92 -138.5q-35 -53 -67 -101t-60.5 -85t-53 -59.5t-40.5 -22.5q-29 0 -40.5 29.5t-11.5 82.5q0 39 5.5 94.5t14.5 119t21.5 133t24.5 141.5l28.5 171t25.5 170t18.5 158.5t7.5 135.5q0 86 -15.5 136t-54.5 50 q-43 0 -108.5 -65.5t-144.5 -170t-166 -235.5t-173 -264t-171 -260t-161.5 -227.5t-140 -161t-108.5 -60.5q-47 0 -66.5 33t-19.5 88z" />
<glyph unicode="N" horiz-adv-x="1470" d="M-133 -100q0 104 44 237t113.5 271.5t157.5 270.5t176 235.5t167 167t134 63.5q57 0 91 -47t54.5 -125t30 -177.5t17.5 -205.5t18.5 -210t30 -184.5t54 -131t89.5 -50.5q72 0 128.5 56.5t94.5 145.5t58.5 198.5t20.5 214.5q0 43 -3.5 84t-11.5 80q-4 10 10.5 14t18.5 -10 q14 -72 14 -168q0 -111 -22.5 -224.5t-64.5 -207t-103.5 -152.5t-139.5 -59q-66 0 -105.5 52t-63 138t-34 194.5t-18.5 219.5v-2q-8 100 -17 195.5t-25.5 169t-45 118.5t-76.5 45q-51 0 -128.5 -61.5t-161.5 -162.5t-169 -230.5t-152.5 -264.5t-109.5 -265t-42 -237 q0 -82 32 -133q8 -12 -4 -19t-20 3q-37 57 -37 154z" />
<glyph unicode="O" horiz-adv-x="1294" d="M68 365q0 166 74.5 308t195.5 246.5t274.5 164t311.5 59.5h43t43 -4q14 -2 13 -16.5t-17 -12.5q-23 4 -42.5 4h-39.5q-154 0 -302.5 -57.5t-265 -157.5t-188.5 -237.5t-72 -296.5q0 -61 18.5 -136t60.5 -138.5t109.5 -106.5t168.5 -43q156 0 294 50t241.5 136 t162.5 201.5t59 246.5q0 57 -16 108.5t-44 89.5t-65.5 59.5t-80.5 21.5q-113 0 -197 -27.5t-144.5 -69.5t-101 -93.5t-65.5 -98.5q-6 -10 -17.5 -4t-7.5 17q27 51 70 104t106.5 98t151.5 74t205 29q49 0 92 -24.5t74.5 -65.5t50 -97.5t18.5 -120.5q0 -137 -61.5 -257.5 t-169 -211t-251 -142.5t-304.5 -52q-109 0 -181.5 46t-119 113.5t-65.5 146.5t-19 147z" />
<glyph unicode="P" horiz-adv-x="944" d="M-633 371q0 98 76 195.5t201 184.5t284.5 160.5t327.5 128t331 85t292 30.5q250 0 366.5 -82t116.5 -209q0 -72 -45 -137t-120 -125.5t-173 -112t-205.5 -91.5t-216 -66.5t-203.5 -38.5q-49 -139 -80.5 -237.5t-35.5 -135.5q-4 -16 -18.5 -13t-10.5 17q4 39 33.5 135.5 t77.5 229.5q-23 -4 -44.5 -4h-41.5q-84 0 -116 35.5t-32 82.5q0 35 11.5 65t25.5 50q10 12 21.5 4t3.5 -20q-12 -16 -22.5 -43t-10.5 -56q0 -35 24.5 -62.5t94.5 -27.5h47t51 4q39 111 85 233t97 251q6 16 19.5 9t9.5 -22q-49 -123 -94 -241.5t-84 -224.5q94 12 198.5 38.5 t207 64.5t196.5 87t164.5 105.5t113.5 119t43 127.5q0 117 -109.5 189.5t-344.5 72.5q-127 0 -287 -29.5t-325 -81.5t-321.5 -124t-278.5 -156t-196.5 -177t-74.5 -187q0 -39 26.5 -64.5t68.5 -40t91 -18.5q24 -2 47 -2t45 2q16 2 18.5 -11.5t-14.5 -17.5q-22 -2 -45 -2 q-28 0 -58 3q-54 5 -100 22.5t-77 49.5t-31 79z" />
<glyph unicode="Q" horiz-adv-x="1234" d="M51 279q0 96 38 193t103.5 187.5t153.5 169t188.5 138t207 93.5t208.5 34q65 -1 135 -17q14 -4 10.5 -18.5t-18.5 -9.5q-33 8 -63.5 12t-63.5 4q-100 0 -203.5 -33t-199.5 -89t-181 -133t-148.5 -164t-100.5 -181t-37 -186q0 -68 22.5 -126.5t60.5 -101.5t90 -68.5 t112 -25.5q31 0 62.5 3t61.5 7q-23 49 -30.5 98.5t-7.5 90.5q0 176 56 309t136 222t170 134t158 45q43 0 83 -9t69.5 -33.5t47 -70.5t17.5 -120q0 -123 -54.5 -234.5t-144.5 -204t-210 -157t-249 -90.5q25 -49 61 -93t87 -79t118.5 -55.5t151.5 -20.5q23 0 47.5 2t53.5 6 q12 4 16 -10t-12 -19q-29 -4 -53.5 -6t-51.5 -2q-92 0 -163.5 22.5t-126 60.5t-93.5 86t-63 102q-68 -12 -137 -13q-66 0 -123.5 28t-99.5 75t-66.5 110.5t-24.5 137.5zM479 156q0 -41 9.5 -88.5t29.5 -94.5q127 25 243 87.5t205 150.5t141 196.5t52 225.5q0 63 -15.5 104 t-41 62.5t-60 30t-71.5 8.5q-66 0 -150 -43t-160.5 -129t-129 -214t-52.5 -296z" />
<glyph unicode="R" horiz-adv-x="1730" d="M-418 387q14 59 70.5 132t144.5 148.5t204 147.5t253 127t288.5 89t311.5 34q55 0 104.5 -12.5t86 -34t58 -49t21.5 -60.5q0 -45 -21.5 -95t-55 -101t-76.5 -103.5t-86 -101.5q-41 -45 -79 -91t-68.5 -90t-49 -85t-18.5 -76q0 -31 17.5 -68t59 -69.5t113.5 -54t180 -21.5 q129 0 322.5 37t425.5 131q12 6 18 -6.5t-10 -22.5q-231 -96 -428 -132t-328 -36q-119 0 -195.5 24.5t-121.5 61.5t-63.5 79t-18.5 77q0 41 19.5 84t50 89t70.5 93t83 96t85 99.5t74 98.5t52.5 94t20.5 89q0 53 -71 90t-171 37q-156 0 -304.5 -32.5t-282.5 -87t-246.5 -124 t-199.5 -142t-141.5 -143.5t-68.5 -128q-4 -14 -18.5 -11t-10.5 19zM311 -39q8 47 39 139.5t75 211t97.5 252.5t110.5 267q6 10 17.5 6.5t6.5 -18.5q-55 -129 -108 -262t-96 -250t-74 -209t-39 -141q-4 -12 -18.5 -10t-10.5 14z" />
<glyph unicode="S" horiz-adv-x="1390" d="M37 614q0 80 57.5 158t152.5 149.5t218 132t255 105.5t262 70.5t241 25.5q76 0 139 -21.5t111.5 -60t82.5 -90t50 -108.5q4 -16 -10.5 -19.5t-18.5 11.5q-16 53 -47 100t-76 83t-103.5 56.5t-127.5 20.5q-106 0 -233.5 -24.5t-256.5 -66.5t-248.5 -100.5t-213 -126 t-149.5 -143.5t-56 -152q0 -37 46 -57t119.5 -32.5t167 -17.5t189.5 -9q127 -4 256 -12.5t232.5 -32t169 -68.5t65.5 -123q0 -47 -31 -100t-83 -104.5t-120.5 -98.5t-141.5 -83t-146.5 -57.5t-137.5 -21.5q-66 0 -98.5 36t-32.5 89t33 114.5t98 117.5q14 10 20.5 -2.5 t-3.5 -18.5q-59 -49 -89 -106.5t-30 -104.5q0 -41 25.5 -68.5t76.5 -27.5q90 0 201 43t206 108.5t159.5 142.5t64.5 142q0 70 -61.5 109t-160.5 59.5t-223 27.5t-249 11q-109 4 -208 9t-176 19.5t-122 42t-45 74.5z" />
<glyph unicode="T" horiz-adv-x="1212" d="M-55 453q0 39 39 93t139 112.5t272 114.5t437.5 100.5t635 72t865.5 27.5q16 0 14 -14.5t-14 -14.5q-498 0 -866.5 -26.5t-631 -70.5t-430 -98.5t-263 -108.5t-132.5 -104.5t-37 -82.5q0 -29 19.5 -47.5t54.5 -18.5q14 0 12 -14.5t-12 -14.5q-47 0 -74.5 27t-27.5 68z M682 -72q16 121 47 243t66.5 232.5t73.5 202t69 150.5q6 10 18.5 4t6.5 -17q-31 -57 -68 -147t-73 -199.5t-65.5 -230.5t-45.5 -242q0 -6 -5.5 -9t-11.5 -2t-10 5t-2 10z" />
<glyph unicode="U" horiz-adv-x="1525" d="M23 692q0 20 29.5 78.5t78.5 133.5t114.5 157t136.5 149.5t143.5 111.5t138.5 44q45 0 66.5 -25.5t21.5 -68.5q0 -51 -20.5 -113.5t-54.5 -131.5t-77 -144.5t-88 -151.5q-47 -78 -91 -155.5t-80 -151.5t-57.5 -140.5t-21.5 -121.5q0 -25 3 -51.5t14.5 -48t31 -36 t51.5 -14.5q100 0 210 79t215.5 202t202.5 271.5t177 287.5l156 297q10 18 21.5 13t3.5 -25l-142 -267q-53 -111 -95 -213t-70.5 -190t-44 -159.5t-15.5 -121.5q0 -86 48 -130t124 -44q78 0 192.5 24.5t237.5 84.5q16 10 21.5 -3.5t-9.5 -21.5q-129 -61 -245.5 -86.5 t-196.5 -25.5q-88 0 -144.5 51t-56.5 151q0 74 33 195t92 270q-78 -123 -166 -242.5t-180 -214t-186 -152.5t-183 -58q-41 0 -66.5 16t-39.5 43t-18.5 58.5t-4.5 60.5q0 57 23 126.5t59.5 146.5t81.5 156t90 157q43 74 85 147.5t76 141t54.5 128t20.5 107.5q0 65 -57 65h-2 q-61 0 -131 -42t-138.5 -107.5t-130 -143t-110 -149.5t-76 -127.5t-27.5 -75.5q0 -16 -14 -15t-14 15z" />
<glyph unicode="V" horiz-adv-x="681" d="M109 500q0 106 13 204.5t31.5 179.5t40 142t39.5 94q6 10 17.5 5t7.5 -17q-18 -31 -38.5 -90.5t-39 -140t-31 -177t-12.5 -200.5q0 -117 17.5 -232.5t66.5 -228.5q41 135 119 280.5t178 285.5t216 266t232.5 221.5t229.5 150.5t205 55q111 0 177.5 -60t100.5 -153 q4 -12 -10 -17t-18 9q-31 84 -91.5 138.5t-158.5 54.5q-92 0 -204 -57.5t-227.5 -154.5t-228 -225t-211 -269.5t-174 -287t-114.5 -276.5q-6 -10 -16.5 -11t-14.5 9q-57 127 -79.5 258t-22.5 244z" />
<glyph unicode="W" horiz-adv-x="2041" d="M166 172q0 131 30.5 288.5t87 312.5t135.5 296.5t173 243.5q10 8 20.5 -1t-0.5 -20q-92 -100 -168.5 -239.5t-132 -292t-86 -306t-30.5 -282.5q0 -74 11 -136.5t33.5 -107.5t59.5 -70.5t86 -25.5q98 0 188.5 56.5t170 146.5t147 202.5t122 223t93.5 209t59 161.5 q4 10 17.5 7.5t11.5 -13.5q-6 -35 -8 -79t-2 -91q0 -111 15 -235.5t50 -230t89.5 -175t131.5 -69.5q63 0 112.5 40t86.5 106.5t60.5 152.5t38 179t20.5 185t6 172q0 57 -3 104.5t-7 80.5q-2 12 12 16t16 -12q4 -33 7.5 -81t3.5 -108q0 -82 -6.5 -178t-22.5 -191.5 t-42 -185.5t-64.5 -158.5t-93 -109.5t-124.5 -41q-86 0 -145 72.5t-97 182.5t-55.5 240t-17.5 244v58q-31 -78 -74 -176.5t-99 -199.5t-122.5 -197.5t-141.5 -171t-159 -120t-174 -45.5q-57 0 -99 28t-69 77t-39 116.5t-12 147.5z" />
<glyph unicode="X" horiz-adv-x="1402" d="M2 -117q233 262 452.5 452.5t417.5 328.5q14 88 34 172t39.5 155.5t35.5 128t29 86.5q4 10 18 9t10 -17q-12 -31 -28.5 -83t-35 -119.5t-36.5 -146.5t-33 -163q227 152 422 241t343.5 132t245.5 52q51 5 85 5q30 0 47 -4q16 -4 10 -18.5t-18 -10.5q-16 4 -47 4 q-35 0 -85 -5q-96 -9 -244 -53t-343 -135t-422 -247q-16 -92 -25.5 -181t-9.5 -169q0 -68 8.5 -125t27 -99t49 -65.5t75.5 -23.5q41 0 96.5 11t114.5 29.5t117.5 44t105.5 54.5q12 4 19.5 -6.5t-2.5 -18.5q-49 -31 -109.5 -56.5t-122 -45t-119 -30.5t-100.5 -11 q-53 0 -89 25.5t-58.5 71.5t-31.5 108.5t-9 136.5q0 76 8 158t22 168q-195 -135 -405.5 -320.5t-437.5 -439.5q-8 -10 -20.5 -2t-0.5 22z" />
<glyph unicode="Y" horiz-adv-x="1040" d="M59 471q0 80 19.5 175t53.5 194.5t79 195.5t98 178q10 12 20.5 3t4.5 -19q-51 -80 -96 -174t-78 -191.5t-52.5 -190.5t-19.5 -171q0 -72 31 -124t76 -52q86 0 189 68.5t215 178t227.5 247t224.5 272.5q8 10 16 19.5t16 19.5q6 10 17.5 3t3.5 -20q-115 -141 -196 -299.5 t-134 -324.5t-81.5 -332t-39.5 -320q0 -16 -14 -16t-14 16q8 123 27.5 254.5t53 264.5t84 265t121.5 257q-96 -115 -192 -219.5t-188.5 -185.5t-177.5 -129t-158 -48q-57 0 -96.5 59.5t-39.5 145.5z" />
<glyph unicode="Z" horiz-adv-x="1785" d="M-154 434q0 37 41 103.5t123 143.5t207 157t292 144.5t378 105t465 40.5q23 0 48 -1t48 -1q10 0 10 -9t-4 -13q-86 -49 -181 -141.5t-189.5 -208t-185.5 -244.5t-171 -253t-144.5 -233.5t-105.5 -185.5q168 92 340 137t344 45q256 0 549 -90q12 -4 7 -18t-15 -10 q-145 45 -278.5 67.5t-262.5 22.5q-164 0 -338 -46t-360 -149q-12 -6 -22.5 0t-4.5 19q33 63 92.5 166.5t136 226.5t167 255t185.5 253t191.5 222t186.5 161h-43q-250 0 -456 -39t-370 -101.5t-286.5 -139.5t-203.5 -150.5t-121 -137t-40 -98.5q0 -39 22.5 -66.5t75.5 -50.5 q10 -4 5 -16t-17 -8q-61 27 -88 59.5t-27 81.5z" />
<glyph unicode="a" horiz-adv-x="475" d="M20 51q0 18 13.5 40t34 39t45 29.5t45.5 12.5q33 0 42 -22.5t7 -38.5q-4 -10 -16.5 -9.5t-12.5 13.5q2 8 -2 18t-18 10q-16 0 -35 -9t-35 -23.5t-27.5 -29.5t-11.5 -30q0 -8 8.5 -7t21.5 8t29.5 18.5t32.5 25.5q12 10 20.5 8t16.5 -10q29 -29 63.5 -39t63.5 -10 q51 0 111.5 22.5t111.5 53.5q16 6 21.5 -5.5t-4.5 -19.5q-53 -33 -119 -56.5t-121 -23.5q-41 0 -79 13.5t-70 42.5q-52 -50 -94 -56q-6 -1 -10 0q-32 0 -32 35z" />
<glyph unicode="b" horiz-adv-x="446" d="M37 37q0 35 11 79t31.5 90t47 92t57.5 87q10 10 22.5 2t2.5 -18q-29 -39 -55.5 -84t-46 -89t-30.5 -86t-11 -73q0 -12 5 -21.5t11 -9.5q23 0 22 39q0 35 -16 74q-6 10 4 15t17 -1q27 -23 77 -34t107 -11q59 0 116.5 9t98.5 26q14 4 16 -10.5t-8 -18.5 q-41 -16 -101.5 -25.5t-121.5 -9.5q-45 0 -89 7.5t-75 19.5q2 -10 3 -21.5t1 -19.5q0 -31 -12 -49.5t-39 -18.5q-18 0 -31.5 17.5t-13.5 42.5z" />
<glyph unicode="c" horiz-adv-x="430" d="M35 59q0 29 14 52.5t35.5 39t45.5 24.5t42 11q16 2 17 -13t-13 -15q-16 -2 -35.5 -9.5t-36 -19.5t-29 -29.5t-12.5 -40.5q0 -31 35 -44t70 -13q98 0 180 35t137 82q10 8 17.5 -2.5t-0.5 -18.5q-59 -49 -146.5 -87t-187.5 -38q-23 0 -46.5 5.5t-43 15.5t-31.5 26.5 t-12 38.5z" />
<glyph unicode="d" horiz-adv-x="675" d="M-14 37q0 20 17 41.5t46 40t64.5 30t72.5 11.5q16 -2 13.5 -15.5t-13.5 -13.5q-31 0 -61.5 -9t-55 -22.5t-40 -31t-15.5 -31.5q0 -8 9 -8q37 0 82 23.5t94 69.5t97 115.5t89 161.5q4 12 17.5 7t9.5 -17q-29 -119 -29 -201q0 -72 22.5 -112.5t69.5 -40.5q55 0 107.5 17.5 t138.5 62.5q16 8 19 -5.5t-7 -19.5q-90 -47 -145.5 -65.5t-112.5 -18.5q-63 0 -92 49t-29 133q0 45 6 99q-86 -150 -178 -218.5t-159 -68.5q-16 0 -26.5 10t-10.5 27z" />
<glyph unicode="e" horiz-adv-x="552" d="M49 106q0 16 14.5 32t36 27t48 17t51.5 6q12 0 12 -14t-12 -14q-20 0 -42 -4t-40.5 -11.5t-29.5 -17.5t-11 -21q0 -16 14 -23t31 -11q10 -2 9 -13.5t-11 -11.5q-35 -4 -35 -18q0 -23 102 -23q41 0 99.5 9.5t119 24.5t114.5 35.5t89 45.5q10 6 18.5 -4.5t-1.5 -20.5 q-35 -25 -92.5 -46t-120 -37.5t-123 -26t-103.5 -9.5q-59 0 -95 11.5t-36 40.5q0 10 10.5 18t20.5 12q-37 10 -37 47z" />
<glyph unicode="f" horiz-adv-x="432" d="M-117 117q-6 18 5.5 23t23.5 1q23 -10 51.5 -18t61.5 -19q16 70 38.5 134.5t53 114.5t69.5 80t90 30q35 0 51.5 -18.5t16.5 -49.5q0 -35 -24.5 -81t-64.5 -89t-92 -76.5t-110 -46.5q0 -2 -1 -2t-1 -2q47 -10 97.5 -17t101.5 -7q55 0 113.5 10t117.5 33q16 6 20.5 -8.5 t-7.5 -20.5q-59 -23 -121 -33t-123 -10q-53 0 -105.5 7t-99.5 18q-14 -63 -24.5 -127t-18.5 -119q-4 -27 -7 -51.5t-7 -44.5q0 -10 -15.5 -9.5t-13.5 11.5q0 96 -23.5 198.5t-52.5 188.5zM-88 109q20 -55 39 -117.5t29 -132.5q8 51 16 105t20 112q-31 8 -57.5 16t-46.5 17z M61 135q43 10 88.5 41t82 70t60 79t23.5 70q0 39 -39 39q-41 0 -74.5 -24.5t-59 -65.5t-46 -95t-35.5 -114z" />
<glyph unicode="g" horiz-adv-x="475" d="M-350 -367q0 70 47 127.5t125 106.5t179 89t212 75q-2 27 -12 45q-29 -18 -56.5 -34.5t-62.5 -16.5q-25 0 -41 12t-16 35q0 29 30.5 53.5t69.5 24.5q23 0 46.5 -7.5t41.5 -27.5q20 10 41.5 16t46.5 2q16 -4 14 -17.5t-14 -11.5q-9 1 -17 1l-57 -15q10 -16 15 -49 q74 23 147.5 43.5t145.5 38.5q14 4 17 -10.5t-9 -18.5q-150 -39 -299 -84q0 -66 -34 -154.5t-93.5 -170.5t-141 -139.5t-180.5 -57.5q-59 0 -102 43t-43 102zM-322 -367q0 -47 35 -81.5t82 -34.5q59 0 113.5 24.5t100.5 64.5t83 91t64.5 104.5t42 105.5t16.5 95 q-106 -33 -203.5 -72t-171 -84t-118 -98t-44.5 -115zM53 72q0 -19 29 -19t54.5 14.5t49.5 30.5q-14 12 -29.5 17.5t-31.5 5.5q-29 0 -50.5 -15.5t-21.5 -33.5z" />
<glyph unicode="h" horiz-adv-x="628" d="M29 -20l69 376q4 12 17.5 11.5t11.5 -15.5l-55 -307q35 43 62.5 60.5t53.5 17.5q18 0 29.5 -16.5t20.5 -32.5q10 -18 27.5 -39t47.5 -21q57 0 162 27t211 80q10 4 16.5 -7.5t-4.5 -17.5q-55 -29 -111.5 -49t-107.5 -33.5t-94 -20.5t-72 -7q-47 0 -67.5 24.5t-32.5 50.5 q-14 33 -25 33q-25 0 -57.5 -28.5t-77.5 -94.5q-4 -8 -15 -5t-9 14z" />
<glyph unicode="i" horiz-adv-x="452" d="M49 113q4 10 17.5 6t11.5 -15q-4 -15 -5 -28q0 -22 13 -38q20 -24 59 -24t86.5 8.5t95.5 22.5t95 33.5t86 42.5q12 8 20.5 -3.5t-4.5 -21.5q-41 -25 -90 -45t-99 -34.5t-99.5 -22.5t-90.5 -8q-57 0 -85 34q-17 21 -18 51q0 19 7 42zM129 293q-4 14 8 18l60 15 q16 4 19 -10.5t-11 -18.5l-60 -14q-12 -4 -16 10z" />
<glyph unicode="j" horiz-adv-x="423" d="M-254 -395q0 45 29.5 95t82 101.5t123 100.5t152.5 92q-29 57 -82 104q-6 8 3 17.5t18 3.5q59 -53 86 -113q74 37 153.5 67t161.5 50q16 4 18.5 -10.5t-10.5 -18.5q-80 -20 -159.5 -49t-151.5 -63q18 -49 18 -103q0 -72 -29.5 -137.5t-78.5 -117.5t-112.5 -82.5 t-131.5 -30.5q-90 0 -90 94zM-225 -395q0 -66 61 -66t119.5 29t103.5 77t73 108t28 126q0 41 -17 90q-78 -41 -145.5 -87t-116.5 -94t-77.5 -95t-28.5 -88zM63.5 313.5q-4.5 14.5 8.5 18.5l57 12q16 4 19.5 -10.5t-11.5 -18.5l-57 -12q-12 -4 -16.5 10.5z" />
<glyph unicode="k" horiz-adv-x="530" d="M12 -31l109 369q4 14 18.5 9t10.5 -17l-87 -283q43 51 74 74.5t60 38.5q14 6 17 -7.5t-5 -17.5q-35 -18 -72 -51q23 -16 67 -28.5t99 -12.5q29 0 64.5 4t74.5 13.5t76 23.5t68 37q12 10 19 -4.5t-3 -20.5q-33 -23 -71.5 -39t-78.5 -25t-79 -13.5t-70 -4.5 q-61 0 -111.5 14.5t-76.5 34.5q-23 -23 -43.5 -49t-34.5 -55q-4 -8 -16.5 -4t-8.5 14z" />
<glyph unicode="l" horiz-adv-x="430" d="M25 150q0 70 25.5 132t65.5 109t86 75t89 28q37 0 55.5 -21.5t18.5 -56.5q0 -33 -18.5 -76t-56.5 -87t-94.5 -86t-132.5 -73q12 -33 45 -53.5t87 -20.5q53 0 125.5 24t168.5 77q10 4 16.5 -7.5t-3.5 -17.5q-98 -57 -175 -80.5t-132 -23.5q-90 0 -130 46t-40 112zM53 150 q0 -18 2 -27q72 29 124 67.5t87 78.5t52.5 79t17.5 68q0 49 -45 49q-37 0 -79 -25.5t-78 -68.5t-58.5 -100.5t-22.5 -120.5z" />
<glyph unicode="m" horiz-adv-x="933" d="M35 20l14 91q2 10 16.5 10t12.5 -15l-10 -53q14 10 34.5 24.5t43 28t45 22.5t40.5 9q33 0 36 -21.5t3 -43.5q0 -14 1 -24.5t8 -10.5q27 0 63.5 18.5t73.5 40.5q39 23 74.5 40.5t60.5 17.5q35 0 54.5 -19.5t37.5 -46.5q16 -23 35.5 -44t54.5 -21t77 14t80 31.5t65.5 33 t33.5 19.5q10 8 18.5 -3.5t-1.5 -21.5q-6 -4 -35 -20.5t-69 -34.5t-85 -32.5t-84 -14.5q-45 0 -69.5 24.5t-45.5 53.5q-16 23 -30.5 38t-36.5 15q-18 0 -52 -15.5t-69 -37.5q-41 -25 -82 -44.5t-69 -19.5q-29 0 -33 19.5t-4 44.5q0 14 -1 25.5t-10 11.5q-14 0 -35.5 -10.5 t-45 -25t-46 -30.5t-41.5 -29q-16 -12 -23 -8t-5 14z" />
<glyph unicode="n" horiz-adv-x="589" d="M37 14l16 97q4 14 17.5 10t11.5 -15l-10 -49q41 29 78.5 51.5t62.5 22.5q27 0 36 -15.5t15 -29.5q8 -18 24.5 -36.5t59.5 -18.5q41 0 111.5 19.5t185.5 70.5q12 4 17.5 -7.5t-5.5 -17.5q-121 -53 -193.5 -73.5t-115.5 -20.5q-29 0 -47 6t-30.5 17.5t-18.5 23.5t-12 25 q-10 29 -27 28q-23 0 -55.5 -21.5t-98.5 -70.5q-4 -4 -14 -5t-8 9z" />
<glyph unicode="o" horiz-adv-x="430" d="M19.5 50.5q5.5 27.5 22.5 54t42 36.5q12 4 18.5 -10t-6.5 -18q-16 -6 -27.5 -23.5t-17.5 -36t-5 -33t13 -14.5q16 0 26.5 24.5t6.5 53.5q-2 14 6 18t17 2q37 -8 75.5 -11t77.5 -3q129 0 221 33q12 4 16.5 -9.5t-7.5 -19.5q-92 -33 -230 -33q-41 0 -77.5 2.5t-65.5 6.5 q2 -29 -14.5 -61t-51.5 -32q-29 0 -37 23t-2.5 50.5z" />
<glyph unicode="p" horiz-adv-x="509" d="M-29 -301l80 412q4 10 15.5 8t13.5 -13l-60 -303q96 182 176 255t126 73q23 0 35 -12.5t12 -28.5q0 -23 -26 -48q-24 -24 -70 -24h-7q-12 4 -11 16.5t11 12.5q35 -2 54.5 13.5t19.5 29.5q0 12 -18 12q-23 0 -56 -21.5t-74.5 -69.5t-91 -127t-104.5 -193q-4 -10 -15.5 -6 t-9.5 14z" />
<glyph unicode="q" horiz-adv-x="477" d="M29 72q0 31 40 49t83 18q23 0 47 -5t34 -15q8 -6 -1 -17.5t-19 -3.5q-8 8 -26.5 12.5t-34.5 4.5q-29 0 -62 -12.5t-33 -30.5q0 -12 11.5 -15.5t30 0.5t40 13.5t39.5 23.5q10 8 19.5 4t9.5 -14l-25 -268q33 57 81 108t98.5 92t97.5 69t80 38q10 4 15 -10.5t-7 -18.5 q-37 -10 -90.5 -44t-107.5 -83t-101 -109.5t-72 -123.5q-4 -10 -16.5 -9t-9.5 13l26 321q-23 -14 -48.5 -22t-48 -7t-36.5 11t-14 31z" />
<glyph unicode="r" horiz-adv-x="591" d="M23 166q0 10 14 12t14 -12q1 -25 25 -35q11 -5 25 -5q17 0 40 7q12 4 18.5 -7t-1.5 -22q-10 -14 -15.5 -35.5t-5.5 -37.5t17.5 -28.5t40.5 -12.5q53 0 114.5 10t123 27.5t116.5 41t98 52.5q12 6 19.5 -5.5t-2.5 -19.5q-43 -29 -101.5 -53.5t-122 -42.5t-127 -28.5 t-118.5 -10.5q-35 0 -60.5 20.5t-25.5 49.5q0 14 5 33.5t11 35.5q-12 -2 -23 -2q-30 0 -50 12q-28 16 -29 56z" />
<glyph unicode="s" horiz-adv-x="456" d="M54 112.5q5 12.5 16 8.5q35 -16 75.5 -50t65.5 -71q66 35 148.5 64.5t154.5 56.5q14 4 18.5 -7.5t-6.5 -17.5q-70 -27 -153.5 -59.5t-147.5 -61.5q6 -16 6 -30q0 -35 -24.5 -60.5t-67.5 -25.5q-16 0 -28.5 12t-12.5 29q0 23 23.5 45t64.5 45q-20 31 -58 60.5t-71 45.5 q-8 4 -3 16.5zM127 -100q0 -12 12 -13q31 0 47.5 17.5t16.5 40.5q0 12 -2 18q-35 -18 -54.5 -33.5t-19.5 -29.5z" />
<glyph unicode="t" horiz-adv-x="350" d="M-192.5 241.5q-4.5 16.5 12.5 18.5q63 14 122.5 27.5t118.5 25.5q4 10 5.5 19.5t5.5 19.5q4 12 18 10t10 -18l-6 -25q160 33 320.5 53.5t341.5 26.5q16 0 16 -15t-16 -13q-182 -8 -343 -28.5t-327 -53.5q-4 -29 -8 -58.5t-4 -58.5q0 -39 7 -76t25.5 -66.5t48 -50 t76.5 -26.5q18 -2 15.5 -16.5t-19.5 -12.5q-53 6 -89 29.5t-56.5 57.5t-28.5 76t-8 85q0 53 10 111q-55 -12 -111.5 -24.5t-115.5 -27.5q-16 -6 -20.5 10.5z" />
<glyph unicode="u" horiz-adv-x="503" d="M40 57.5q3 24.5 11.5 50.5t14.5 42q6 10 17 3.5t7 -16.5q-6 -12 -12 -30.5t-9 -36t-3 -30.5t10 -13q29 0 62.5 26.5t58.5 61.5q14 20 30 -2q18 -27 43 -47.5t68 -20.5q25 0 55.5 8t62 19.5t58.5 24t41 22.5q12 10 22.5 -1.5t-4.5 -21.5q-16 -12 -44.5 -26.5t-62.5 -25.5 t-69 -19.5t-59 -8.5q-45 0 -78 21.5t-51 46.5q-20 -27 -59 -56.5t-74 -29.5q-25 0 -32 17.5t-4 42z" />
<glyph unicode="v" horiz-adv-x="475" d="M41 139q-2 10 12.5 12.5t16.5 -12.5q0 -25 6.5 -53.5t17.5 -56.5q14 33 28.5 56.5t27.5 45.5q14 23 34 8q35 -23 81 -35t100 -12q80 0 172 31q10 4 14 -10.5t-6 -18.5q-92 -31 -180 -31q-123 0 -195 50q-12 -20 -28.5 -51t-28.5 -66q-4 -10 -14.5 -13t-16.5 9 q-18 37 -29.5 77.5t-11.5 69.5z" />
<glyph unicode="w" horiz-adv-x="757" d="M51 100q0 10 12.5 13.5t16.5 -9.5q0 -10 5 -26.5t16.5 -31.5t30 -27.5t48.5 -12.5q31 0 51.5 16.5t36.5 32.5t32.5 29.5t39.5 13.5q16 0 33.5 -13t36.5 -32q23 -23 52.5 -45t61.5 -22q47 0 65.5 23.5t18.5 53.5q0 25 -8 48.5t-20 42.5q-8 12 3 20t21 -4q33 -45 33 -107 q0 -43 -24.5 -74.5t-88.5 -31.5q-41 0 -74.5 24.5t-60.5 51.5q-16 16 -28.5 26.5t-20.5 10.5q-14 0 -25.5 -10.5t-25.5 -24.5q-20 -20 -44 -39t-65 -19q-39 0 -63.5 15.5t-39 36t-20.5 41t-6 30.5z" />
<glyph unicode="x" horiz-adv-x="645" d="M61 119q-4 10 7.5 16t17.5 -4q10 -23 29.5 -42t46.5 -36q55 39 123 74q14 4 18 -8.5t-6 -16.5q-29 -14 -56.5 -29.5t-52.5 -33.5q61 -31 136 -31q41 0 91 9.5t100 24.5t99.5 34.5t85.5 42.5q12 4 17.5 -8.5t-0.5 -16.5q-39 -23 -89 -44t-103.5 -36.5t-105.5 -24.5t-95 -9 q-41 0 -82 11t-76 29q-24 -18 -51 -49q-10 -10 -20.5 0.5t-0.5 20.5l21.5 21.5t23.5 21.5q-55 37 -78 84z" />
<glyph unicode="y" horiz-adv-x="655" d="M-45 -279q0 43 26.5 82t74.5 74t112.5 65.5t140.5 59.5q-6 39 -28 39q-35 0 -68 -13.5t-74 -13.5q-47 0 -73 24q-18 16 -18 49q0 13 3 28q4 10 17.5 10t11.5 -14q-6 -35 11.5 -51.5t47.5 -16.5q37 0 70 13.5t72 13.5t53 -58q90 31 186.5 58.5t194.5 52.5q14 4 17 -10.5 t-9 -18.5q-98 -23 -196.5 -50.5t-186.5 -57.5v-17q0 -47 -17.5 -106.5t-53.5 -110.5t-90 -86t-130 -35q-41 0 -67.5 27t-26.5 63zM-16 -279q0 -25 18 -43t47 -18q68 0 117 32t82 80t48 101t15 96v6q-72 -27 -131 -55.5t-103 -60t-68.5 -66.5t-24.5 -72z" />
<glyph unicode="z" horiz-adv-x="532" d="M49 114.5q2 14.5 14 12.5q31 -6 60 -6q20 0 42.5 4t51.5 14q10 4 16.5 -9t-4.5 -17q-23 -10 -51 -31t-47.5 -40t-24 -34.5t20.5 -15.5q131 0 243.5 41t221.5 88q12 4 17 -7.5t-5 -17.5q-111 -47 -227.5 -90t-249.5 -43q-43 0 -54.5 13.5t-3 33t30 42t43.5 40.5h-20 q-33 0 -64 6q-12 2 -10 16.5z" />
<glyph unicode="&#xa0;" />
<glyph unicode="&#x2000;" horiz-adv-x="683" />
<glyph unicode="&#x2001;" horiz-adv-x="1366" />
<glyph unicode="&#x2002;" horiz-adv-x="683" />
<glyph unicode="&#x2003;" horiz-adv-x="1366" />
<glyph unicode="&#x2004;" horiz-adv-x="455" />
<glyph unicode="&#x2005;" horiz-adv-x="341" />
<glyph unicode="&#x2006;" horiz-adv-x="227" />
<glyph unicode="&#x2007;" horiz-adv-x="227" />
<glyph unicode="&#x2008;" horiz-adv-x="170" />
<glyph unicode="&#x2009;" horiz-adv-x="273" />
<glyph unicode="&#x200a;" horiz-adv-x="75" />
<glyph unicode="&#x202f;" horiz-adv-x="273" />
<glyph unicode="&#x205f;" horiz-adv-x="341" />
<glyph unicode="&#x25fc;" horiz-adv-x="133" d="M0 0v133h133v-133h-133z" />
</font>
</defs>
</svg>
